<?xml version="1.0" encoding="UTF-8" standalone="no"?><!-- Generator: Gravit.io --><svg xmlns="http://www.w3.org/2000/svg" xmlns:xlink="http://www.w3.org/1999/xlink" style="isolation:isolate" viewBox="0 0 560 315" width="560pt" height="315pt"><defs><clipPath id="_clipPath_kUduEglesSpDW3fHEztjUiON3ARTHZo4"><rect width="560" height="315"/></clipPath></defs><g clip-path="url(#_clipPath_kUduEglesSpDW3fHEztjUiON3ARTHZo4)"><g><path d=" M 234.552 0.521 C 233.666 0.841 228.128 3.868 222.245 7.265 C 216.363 10.662 209.373 14.673 206.69 16.175 C 201.472 19.128 200.044 20.285 198.986 22.451 C 198.223 24.002 197.977 26.266 198.371 27.768 C 198.789 29.343 211.686 51.322 230.786 83.023 C 241.96 101.582 241.222 100.4 242.477 101.631 C 243.855 102.985 245.209 103.723 247.104 104.215 C 249.861 104.929 249.959 104.88 263.078 97.324 C 269.527 93.632 276.615 89.571 278.855 88.291 C 283.31 85.78 284.59 84.746 285.574 82.95 C 286.879 80.562 287.248 77.929 286.657 75.64 C 286.436 74.778 279.741 63.505 264.973 39.089 C 253.233 19.67 243.338 3.401 243.018 2.982 C 242.255 1.973 240.656 1.038 238.687 0.423 C 236.742 -0.168 236.496 -0.143 234.552 0.521 Z " fill="none"/><path d=" M 188.599 33.675 C 174.644 37.687 165.611 48.098 161.574 64.933 C 160.541 69.216 159.679 76.28 159.31 83.393 C 159.113 87.306 160.098 99.391 161.23 107.021 C 168.466 155.607 197.214 216.671 233.05 259.498 C 242.28 270.525 252.962 281.256 262.487 289.058 C 277.058 301.02 291.777 309.044 305.56 312.539 C 310.384 313.769 318.802 315 322.444 315 C 324.216 315 325.102 314.902 330.911 314.114 C 336.104 313.4 341.396 311.874 346.466 309.659 C 348.534 308.748 349.026 308.453 348.928 308.084 C 348.755 307.419 328.745 272.42 326.481 268.851 C 324.143 265.134 316.168 252.114 310.359 242.515 C 308.144 238.848 306.249 235.771 306.151 235.648 C 306.052 235.525 305.068 235.648 303.911 235.943 C 295.345 238.109 286.288 236.78 276.517 231.931 C 263.89 225.704 251.879 214.456 241.148 198.827 C 237.407 193.388 233.862 187.234 232.189 183.321 C 227.586 172.467 224.436 161.071 223.082 150.217 C 222.614 146.402 222.541 137.713 222.959 134.464 C 224.165 124.964 227.217 117.309 232.312 110.959 L 233.789 109.113 L 233.346 108.375 C 227.808 99.17 223.574 91.564 210.677 67.64 C 199.06 46.104 191.824 33.158 191.331 33.035 C 191.208 32.985 189.978 33.281 188.599 33.675 Z " fill="none"/><path d=" M 348.509 199.91 C 348.042 200.107 346.27 201.042 344.571 202.027 C 342.873 203.011 335.932 207.023 329.114 210.912 C 322.321 214.826 316.365 218.296 315.922 218.641 C 314.617 219.65 313.362 221.643 312.919 223.489 C 312.23 226.295 312.402 226.738 317.891 236.436 C 334.972 266.586 355.179 301.315 356.336 302.521 C 356.705 302.89 357.715 303.555 358.601 303.998 C 360.053 304.712 360.397 304.786 362.539 304.786 L 364.877 304.786 L 367.954 303.014 C 387.619 291.765 396.775 286.474 397.464 285.981 C 398.473 285.268 399.729 283.299 400.295 281.625 C 400.787 280.099 400.861 277.022 400.443 275.718 C 400.27 275.201 397.784 270.795 394.905 265.897 C 392.025 261.024 385.379 249.677 380.137 240.669 C 355.967 199.196 357.222 201.19 354.318 200.082 C 352.718 199.492 349.912 199.393 348.509 199.91 Z " fill="none"/></g></g></svg>